<svg width="537" height="60" viewBox="0 0 537 60" fill="none" xmlns="http://www.w3.org/2000/svg">
<path d="M33.0288 1.11437V22.0938H11.2565V1.11437H0V53.9472H11.2565V31.8299H33.0288V53.9472H44.2854V1.11437H33.0288ZM116.129 44.1232V1.11437H104.861V44.2815C104.861 50.5513 108.249 53.9472 114.472 53.9472H140.071V44.129H116.129V44.1232ZM140.065 1.11437V10.8504H155.597V53.9472H166.853V10.8504H182.391V1.11437H140.065ZM204.396 41.0381C203.562 44.2874 200.792 45.9413 196.592 45.9413C191.337 45.9413 187.96 42.6217 187.214 37.261H214.375C214.457 36.434 214.533 35.3021 214.533 33.8651C214.533 25.1848 209.208 15.3021 195.846 15.3021C182.484 15.3021 177.159 25.1847 177.159 34.8504C177.159 44.5161 183.767 54.5455 196.598 54.5455C205.907 54.5455 213.11 49.261 214.609 41.0381H204.402H204.396ZM195.84 23.0029C200.862 23.0029 203.795 26.3988 204.093 30.6334H187.354C188.258 25.3431 191.104 23.0029 195.84 23.0029ZM248.087 39.7595C247.334 43.1554 244.261 45.4897 240.435 45.4897C234.736 45.4897 231.359 41.1085 231.359 34.9267C231.359 28.7449 234.655 24.2874 240.289 24.2874C244.115 24.2874 247.334 26.7742 247.941 30.1701H258.445C257.768 21.3431 249.889 15.3079 239.985 15.3079C228.268 15.3079 220.476 23.8299 220.476 34.9267C220.476 46.0235 228.274 54.5455 239.985 54.5455C249.813 54.5455 257.623 48.2053 258.748 39.7595H248.087ZM286.662 15.3079C281.407 15.3079 277.284 17.4956 275.102 21.1906V1.11437H264.668V53.9472H275.102V33.1085C275.102 28.2053 278.333 24.6628 282.906 24.6628C287.479 24.6628 290.266 27.9824 290.266 32.5865V53.9472H300.701V30.2463C300.701 21.4839 295.148 15.3021 286.662 15.3021V15.3079ZM51.3484 26.9736C51.3484 9.19062 62.774 0 75.8036 0C88.0691 0 97.0568 7.53666 98.3808 18.9091H87.4392C86.7452 13.4076 81.9334 9.71847 75.8036 9.71847C67.9299 9.71847 61.87 15.6716 61.87 26.9736C61.87 38.2757 67.9299 44.1525 75.8036 44.1525C82.0734 44.1525 86.8793 40.4633 87.7192 35.0381H98.1708C97.2668 46.3402 88.2791 53.9472 75.8036 53.9472C62.5641 53.9472 51.3484 44.7566 51.3484 26.9736ZM323.861 53.9472H321.82V0H323.861V53.9413V53.9472ZM344.98 15.6246H347.004C347.307 18.8035 349.395 20.8622 352.959 20.8622C356.167 20.8622 358.523 19.6833 358.523 16.8328C358.523 10.9912 345.733 13.9531 345.733 6.56891C345.733 3.26686 348.637 1.05572 352.871 1.05572C357.106 1.05572 359.888 3.47801 360.249 7.20235H358.226C357.951 4.62757 355.928 2.93255 352.871 2.93255C349.815 2.93255 347.821 4.32258 347.821 6.56305C347.821 12.2874 360.675 8.98534 360.675 16.827C360.675 20.6452 357.316 22.7331 352.965 22.7331C348.246 22.7331 345.283 19.9179 344.98 15.6188V15.6246ZM376.463 22.4985H374.556V19.3196C373.769 21.6188 371.832 22.739 369.418 22.739C365.971 22.739 363.731 20.2874 363.731 16.4985V7.23167H365.638V16.2522C365.638 19.0968 367.242 20.9736 369.692 20.9736C372.532 20.9736 374.562 18.6745 374.562 15.4311V7.23167H376.469V22.4927L376.463 22.4985ZM388.012 6.99707C385.772 6.99707 383.661 8.20528 382.722 9.99413V7.2434H380.82V28.6745H382.722V19.7419C383.661 21.5249 385.778 22.7449 388.012 22.7449C392.852 22.7449 395.424 19.2258 395.424 14.868C395.424 10.5103 392.852 6.99707 388.012 6.99707ZM387.953 20.9853C384.658 20.9853 382.512 18.563 382.512 14.868C382.512 11.173 384.658 8.75073 387.953 8.75073C391.249 8.75073 393.395 11.173 393.395 14.868C393.395 18.563 391.249 20.9853 387.953 20.9853ZM409.877 17.6833C409.364 19.7713 407.673 20.9853 404.978 20.9853C401.922 20.9853 399.56 18.4692 399.437 15.0499H411.627C411.65 14.8328 411.685 14.3167 411.685 14.0469C411.685 9.83578 408.874 6.9912 404.704 6.9912C400.534 6.9912 397.507 10.1056 397.507 14.739C397.507 19.3724 400.65 22.739 404.978 22.739C408.757 22.739 411.382 20.739 411.872 17.6774H409.877V17.6833ZM404.704 8.75073C407.608 8.75073 409.481 10.4751 409.691 13.2962H399.56C400.05 10.4457 401.922 8.75073 404.704 8.75073ZM417.343 7.23754H422.516V8.9912H416.894V22.4985H414.986V9.59531C414.986 8.08211 415.832 7.23167 417.343 7.23167V7.23754ZM423.181 14.868C423.181 10.8739 425.63 6.99707 430.471 6.99707C433.708 6.99707 436.729 8.8739 437.243 12.2346H435.365C435.061 10.2346 432.973 8.75073 430.466 8.75073C426.838 8.75073 425.176 11.566 425.176 14.868C425.176 18.1701 426.867 20.9853 430.466 20.9853C432.973 20.9853 434.758 19.7713 435.365 17.7771H437.179C436.636 20.8328 434.303 22.7449 430.466 22.7449C425.625 22.7449 423.175 18.868 423.175 14.8739L423.181 14.868ZM440.299 1.06158H442.206V10.4164C442.993 8.1173 444.93 6.99707 447.344 6.99707C450.791 6.99707 453.031 9.44868 453.031 13.2375V22.5044H451.124V13.478C451.124 10.6334 449.52 8.7566 447.07 8.7566C444.23 8.7566 442.2 11.0557 442.2 14.2991V22.5044H440.293V1.05572L440.299 1.06158ZM462.771 6.99707C459.598 6.99707 456.694 9.07918 456.391 12.0176H458.298C458.42 10.2346 460.415 8.75073 462.771 8.75073C465.617 8.75073 467.245 10.3578 467.245 12.6569C467.245 13.1085 466.97 13.3842 466.306 13.3842H462.62C458.84 13.3842 456.42 15.2317 456.42 18.1408C456.42 21.0499 458.502 22.7507 461.774 22.7507C464.218 22.7507 466.335 21.566 467.245 19.7185V22.5044H469.152V12.651C469.152 9.261 466.76 6.9912 462.771 6.9912V6.99707ZM467.245 15.4428C467.245 18.956 465.279 20.9853 461.92 20.9853C459.802 20.9853 458.449 19.8651 458.449 18.1349C458.449 16.1994 460.077 14.9853 462.62 14.9853H467.245V15.4369V15.4428ZM475.597 7.23754H480.77V8.9912H475.147V22.4985H473.24V9.59531C473.24 8.08211 474.086 7.23167 475.597 7.23167V7.23754ZM494.103 7.23754V9.68328C493.14 8.11144 490.93 6.9912 488.813 6.9912C483.978 6.9912 481.406 10.5044 481.406 14.8622C481.406 19.2199 483.978 22.739 488.813 22.739C491.233 22.739 493.415 21.7067 494.103 20.2229V26.915H483.365V28.6745H493.648C495.158 28.6745 496.004 27.824 496.004 26.3109V7.23754H494.097H494.103ZM488.877 20.9853C485.582 20.9853 483.435 18.563 483.435 14.868C483.435 11.173 485.582 8.75073 488.877 8.75073C492.172 8.75073 494.319 11.173 494.319 14.868C494.319 18.563 492.172 20.9853 488.877 20.9853ZM500.163 1.05572H502.461V4.14663H500.163V1.05572ZM500.373 7.23167H502.28V22.4927H500.373V7.23167ZM506.631 7.23167H508.538V10.4106C509.325 8.11144 511.262 6.9912 513.676 6.9912C517.123 6.9912 519.363 9.44281 519.363 13.2317V22.4985H517.456V13.4721C517.456 10.6276 515.852 8.75073 513.402 8.75073C510.562 8.75073 508.532 11.0499 508.532 14.2933V22.4985H506.625V7.23167H506.631ZM535.087 7.23167V9.67742C534.119 8.10557 531.914 6.98534 529.797 6.98534C524.956 6.98534 522.39 10.4985 522.39 14.8563C522.39 19.2141 524.956 22.7331 529.797 22.7331C532.217 22.7331 534.393 21.7009 535.087 20.217V26.9091H524.35V28.6686H534.632C536.143 28.6686 536.988 27.8182 536.988 26.305V7.23754H535.081L535.087 7.23167ZM529.855 20.9795C526.56 20.9795 524.414 18.5572 524.414 14.8622C524.414 11.1672 526.56 8.74487 529.855 8.74487C533.151 8.74487 535.297 11.1672 535.297 14.8622C535.297 18.5572 533.156 20.9795 529.855 20.9795ZM354.464 32.6217H346.689V53.8182H348.719V44.915H354.464C358.546 44.915 361.083 42.434 361.083 38.7742C361.083 35.1144 358.54 32.6276 354.464 32.6276V32.6217ZM354.522 43.0381H348.719V34.4985H354.522C357.759 34.4985 358.937 36.5279 358.937 38.7683C358.937 41.0088 357.759 43.0381 354.522 43.0381ZM365.959 38.5572H371.133V40.3109H365.51V53.8182H363.603V40.9208C363.603 39.4076 364.449 38.5572 365.959 38.5572ZM379.479 38.3167C374.999 38.3167 371.797 41.5836 371.797 46.1877C371.797 50.7918 374.999 54.0645 379.479 54.0645C383.958 54.0645 387.16 50.7918 387.16 46.1877C387.16 41.5836 383.952 38.3167 379.479 38.3167ZM379.479 52.305C376.09 52.305 373.792 49.7595 373.792 46.1877C373.792 42.6158 376.084 40.0704 379.479 40.0704C382.873 40.0704 385.165 42.6158 385.165 46.1877C385.165 49.7595 382.867 52.305 379.479 52.305ZM401.951 38.5572V41.0029C400.983 39.4311 398.778 38.3108 396.661 38.3108C391.82 38.3108 389.248 41.824 389.248 46.1818C389.248 50.5396 391.82 54.0586 396.661 54.0586C399.076 54.0586 401.257 53.0264 401.951 51.5425V58.2346H391.214V59.9941H401.49C403.007 59.9941 403.846 59.1437 403.846 57.6305V38.5572H401.945H401.951ZM396.719 52.305C393.424 52.305 391.278 49.8827 391.278 46.1877C391.278 42.4927 393.424 40.0704 396.719 40.0704C400.015 40.0704 402.161 42.4927 402.161 46.1877C402.161 49.8827 400.015 52.305 396.719 52.305ZM410.513 38.5572H415.686V40.3109H410.064V53.8182H408.157V40.9208C408.157 39.4076 409.002 38.5572 410.513 38.5572ZM428.716 49.0029C428.203 51.0909 426.511 52.305 423.817 52.305C420.76 52.305 418.404 49.7889 418.282 46.3695H430.466C430.495 46.1525 430.53 45.6364 430.53 45.3666C430.53 41.1554 427.718 38.3108 423.542 38.3108C419.366 38.3108 416.351 41.4252 416.351 46.0586C416.351 50.6921 419.495 54.0586 423.817 54.0586C427.602 54.0586 430.232 52.0587 430.71 48.9971H428.716V49.0029ZM423.542 40.0704C426.447 40.0704 428.319 41.7947 428.535 44.6158H418.404C418.888 41.7654 420.76 40.0704 423.542 40.0704ZM432.647 49.0029H434.554C434.764 51.1554 436.187 52.305 438.608 52.305C440.725 52.305 442.119 51.0909 442.119 49.7009C442.119 44.7038 433.014 49.1261 433.014 42.4927C433.014 39.9472 435.131 38.3167 438.398 38.3167C441.664 38.3167 443.839 40.1349 444.02 42.8915H442.113C441.868 40.739 439.722 40.0762 438.269 40.0762C436.304 40.0762 435.003 41.044 435.003 42.4985C435.003 46.9208 444.107 42.6804 444.107 49.7067C444.107 52.3695 441.897 54.0704 438.602 54.0704C435.306 54.0704 432.886 52.1642 432.647 49.0147V49.0029ZM446.137 49.0029H448.044C448.254 51.1554 449.677 52.305 452.098 52.305C454.215 52.305 455.609 51.0909 455.609 49.7009C455.609 44.7038 446.505 49.1261 446.505 42.4927C446.505 39.9472 448.622 38.3167 451.888 38.3167C455.154 38.3167 457.33 40.1349 457.51 42.8915H455.603C455.358 40.739 453.212 40.0762 451.76 40.0762C449.794 40.0762 448.493 41.044 448.493 42.4985C448.493 46.9208 457.598 42.6804 457.598 49.7067C457.598 52.3695 455.387 54.0704 452.092 54.0704C448.797 54.0704 446.376 52.1642 446.137 49.0147V49.0029ZM459.418 33.7361H464.387V34.7507H462.439V40.1173H461.36V34.7507H459.412V33.7361H459.418ZM465.466 33.7361H466.795L468.743 38.5279L470.692 33.7361H472.021V40.1173H470.966V35.7419L469.198 40.1173H468.259L466.516 35.7419V40.1173H465.46V33.7361H465.466Z" fill="white"/>
</svg>
