<svg width="345" height="68" viewBox="0 0 345 68" fill="none" xmlns="http://www.w3.org/2000/svg">
<path d="M104.579 16.7734C107.411 16.7734 109.889 17.14 112.013 17.873C114.137 18.6061 115.772 19.6391 116.919 20.9719C118.065 22.3048 118.638 23.8542 118.638 25.6202C118.638 27.3529 118.099 28.9024 117.02 30.2685C115.941 31.6347 114.491 32.5844 112.67 33.1175C114.794 33.584 116.497 34.6336 117.778 36.2664C119.059 37.8658 119.7 39.7651 119.7 41.9643C119.7 43.9303 119.11 45.663 117.93 47.1624C116.75 48.6619 115.081 49.8115 112.923 50.6112C110.799 51.4109 108.304 51.8107 105.439 51.8107H86.6257V16.7734H104.579ZM103.921 30.2685C104.731 30.2685 105.371 30.0353 105.843 29.5688C106.349 29.1023 106.602 28.4859 106.602 27.7195C106.602 26.9864 106.349 26.4033 105.843 25.9701C105.371 25.5036 104.731 25.2704 103.921 25.2704H98.3079V30.2685H103.921ZM103.921 43.3138C105 43.3138 105.86 43.0639 106.501 42.5641C107.175 42.0309 107.512 41.3479 107.512 40.5148C107.512 39.7484 107.175 39.132 106.501 38.6655C105.86 38.199 105 37.9658 103.921 37.9658H98.3079V43.3138H103.921Z" fill="white"/>
<path d="M126.256 16.7734H156.245V25.5702H137.989V29.8687H154.576V38.6655H137.989V43.0139H156.7V51.8107H126.256V16.7734Z" fill="white"/>
<path d="M194.168 24.0667C192.755 22.7198 191.124 21.6685 189.274 20.9129C187.424 20.1573 185.507 19.7795 183.523 19.7795C180.799 19.7795 178.293 20.4201 176.006 21.7013C173.753 22.9826 171.953 24.7402 170.608 26.9742C169.296 29.1753 168.641 31.59 168.641 34.2182C168.641 36.8464 169.296 39.261 170.608 41.4622C171.953 43.6633 173.753 45.4209 176.006 46.735C178.293 48.0163 180.799 48.6569 183.523 48.6569C185.474 48.6569 187.374 48.2955 189.224 47.5728C191.074 46.8171 192.722 45.7823 194.168 44.4682L196.287 46.6857C194.538 48.2627 192.537 49.5111 190.283 50.4309C188.03 51.3508 185.726 51.8107 183.372 51.8107C180.042 51.8107 176.981 51.0223 174.19 49.4454C171.398 47.8684 169.179 45.733 167.531 43.0391C165.916 40.3452 165.109 37.4049 165.109 34.2182C165.109 31.0315 165.933 28.1076 167.581 25.4465C169.229 22.7855 171.449 20.6829 174.24 19.1388C177.066 17.5619 180.143 16.7734 183.473 16.7734C185.86 16.7734 188.164 17.2169 190.384 18.104C192.604 18.9581 194.555 20.1573 196.236 21.7013L194.168 24.0667Z" fill="white"/>
<path d="M207.444 17.0691H210.925V48.4598H226.464V51.5151H207.444V17.0691Z" fill="white"/>
<path d="M236.841 17.0691H240.322V51.5151H236.841V17.0691Z" fill="white"/>
<path d="M280.533 17.0691H283.963V51.5151H280.281L258.436 22.342V51.5151H254.955V17.0691H258.638L280.533 46.2422V17.0691Z" fill="white"/>
<path d="M298.639 17.0691H302.12V51.5151H298.639V17.0691Z" fill="white"/>
<path d="M342.381 24.0667C340.969 22.7198 339.338 21.6685 337.488 20.9129C335.638 20.1573 333.721 19.7795 331.737 19.7795C329.012 19.7795 326.507 20.4201 324.22 21.7013C321.966 22.9826 320.167 24.7402 318.822 26.9742C317.51 29.1753 316.854 31.59 316.854 34.2182C316.854 36.8464 317.51 39.261 318.822 41.4622C320.167 43.6633 321.966 45.4209 324.22 46.735C326.507 48.0163 329.012 48.6569 331.737 48.6569C333.687 48.6569 335.587 48.2955 337.437 47.5728C339.287 46.8171 340.935 45.7823 342.381 44.4682L344.5 46.6857C342.751 48.2627 340.75 49.5111 338.497 50.4309C336.243 51.3508 333.939 51.8107 331.585 51.8107C328.256 51.8107 325.195 51.0223 322.403 49.4454C319.612 47.8684 317.392 45.733 315.744 43.0391C314.13 40.3452 313.323 37.4049 313.323 34.2182C313.323 31.0315 314.147 28.1076 315.795 25.4465C317.443 22.7855 319.662 20.6829 322.454 19.1388C325.279 17.5619 328.356 16.7734 331.686 16.7734C334.074 16.7734 336.378 17.2169 338.598 18.104C340.817 18.9581 342.768 20.1573 344.45 21.7013L342.381 24.0667Z" fill="white"/>
<path d="M32.2343 0H21.0224V21.0224H0V32.2343H22.8163C28.0177 32.2343 32.2343 28.0177 32.2343 22.8163V0Z" fill="white"/>
<path d="M35.0374 0H46.2493V21.0224H67.2717V32.2343H44.4554C39.2539 32.2343 35.0374 28.0177 35.0374 22.8163V0Z" fill="#D868FF"/>
<path d="M35.0374 67.2714H46.2493L46.2493 46.249L67.2717 46.249V35.0371L44.4554 35.0371C39.254 35.0371 35.0374 39.2537 35.0374 44.4551L35.0374 67.2714Z" fill="#07C2FF"/>
<path d="M32.2343 67.2714H21.0224L21.0224 46.249L0 46.249L9.80179e-07 35.0371L22.8163 35.0371C28.0177 35.0371 32.2343 39.2537 32.2343 44.4551V67.2714Z" fill="white"/>
</svg>
